<svg xmlns="http://www.w3.org/2000/svg" width="185" height="43" viewBox="0 0 185 43" fill="none"><path d="M19.7351 9.63853C21.1211 9.52043 22.1116 7.86233 21.9474 5.93505C21.7832 4.00777 20.5265 2.54113 19.1405 2.65922C17.7544 2.77731 16.764 4.43542 16.9282 6.3627C17.0924 8.28998 18.3491 9.75662 19.7351 9.63853Z" fill="#167047"></path><path d="M42.1222 6.91972C42.3304 4.9967 41.3781 3.31638 39.9952 3.16663C38.6122 3.01689 37.3223 4.45441 37.1141 6.37744C36.9059 8.30046 37.8582 9.98077 39.2411 10.1305C40.6241 10.2803 41.914 8.84275 42.1222 6.91972Z" fill="#167047"></path><path d="M33.3432 28.5982C33.7204 28.4168 33.7992 27.8152 33.5628 27.2852C32.8466 27.3998 32.1471 27.6337 31.4954 27.987C32.0636 28.5314 32.775 28.8704 33.3432 28.5982Z" fill="#167047"></path><path d="M44.762 33.7553C44.6808 32.6524 44.1174 31.6998 43.2436 30.9502C42.3698 30.2005 41.0305 29.2432 38.9057 28.8373C38.8675 28.8302 38.1274 28.7251 37.6404 28.866C34.1835 29.8591 33.9734 33.8413 33.5532 34.9729C32.9253 36.6632 30.2777 36.8398 29.8933 34.6554C29.509 32.4733 31.6361 31.9099 32.2974 31.2056C32.9588 30.5013 32.0539 29.4795 31.1825 29.9737C30.5594 30.327 29.0219 31.2032 28.0861 30.5347L27.6898 30.8356C26.7253 31.5685 25.4624 31.7547 24.3284 31.3298C22.5617 30.6684 19.9403 26.5598 17.3405 24.1485C17.276 24.0888 17.3596 24.1724 17.2975 24.1127C17.4813 25.6597 17.7129 29.4031 14.8767 29.2694C13.1124 29.1859 12.8617 26.7985 13.991 25.8817C15.1202 24.965 14.6929 23.9766 13.7307 23.6209C12.7686 23.2652 12.6851 25.6788 12.124 26.9799C11.563 28.2834 8.3066 28.0686 8.61457 25.1178C8.92493 22.167 13.2533 23.2102 12.6994 21.9664C12.1431 20.7226 11.1834 21.7754 9.60295 22.3389C8.0225 22.8999 7.18691 21.0139 7.88642 19.5337C8.27079 18.7196 9.8584 18.3233 11.3839 18.4092C11.7015 18.4259 11.9665 18.4021 12.2148 18.2015C12.7662 17.7575 13.0265 17.3588 13.2509 17.0603C14.8075 14.9857 15.2205 13.0161 15.2205 13.0161C15.5308 11.8749 15.4831 11.567 14.5257 9.38728C13.5421 7.1503 12.4296 5.48151 11.4293 4.47881C10.6271 3.67665 9.47403 3.0249 8.36867 3.01773C2.09701 2.98431 0.196648 8.37264 0.0844404 9.26075C-0.333352 12.6007 0.354214 20.8276 12.6875 31.8526C26.5988 44.2861 37.4805 42.7797 38.4569 42.7415C39.8679 42.6889 45.1297 38.7378 44.7596 33.7577L44.762 33.7553Z" fill="#167047"></path><path d="M42.7232 9.12443C42.1527 10.8505 40.9255 12.049 39.5003 12.049C37.5331 12.049 35.9359 9.7738 35.9359 6.96862C35.9359 4.16344 37.5307 1.88826 39.5003 1.88826C40.0685 1.88826 40.6032 2.08164 41.0807 2.41826C38.3543 -1.30606 33.8684 0.816326 33.0257 2.54241C31.2877 1.51344 28.2891 1.27709 25.4624 2.77637C23.6815 0.763802 19.7709 -0.489574 18.6441 1.11475C18.5581 1.23651 18.4793 1.36065 18.3982 1.48479C18.7467 1.32245 19.1192 1.22934 19.5083 1.22934C21.4755 1.22934 23.0727 3.50452 23.0727 6.3097C23.0727 9.11488 21.4946 10.1773 19.6897 11.0248C19.4964 11.1155 18.8183 11.7028 19.3842 12.3164C19.6897 12.6434 20.0789 12.4739 20.5229 12.431C23.2469 12.1588 24.5266 15.5131 28.8096 16.1242C30.9869 16.4346 34.7207 15.2934 35.6542 14.7754C37.0747 13.9875 38.7196 13.1854 39.0228 13.3215C39.5385 13.5506 36.2749 15.7088 34.6157 16.6423C34.1645 16.8954 31.5049 18.4066 27.8737 17.6784C25.0351 17.1102 22.0318 13.0541 19.6802 13.9446C19.6324 13.9613 19.3674 13.9971 18.3313 14.7754C17.5005 15.3985 17.1901 15.9165 17.0875 16.1242C16.6148 17.0697 15.2206 18.1989 17.2952 24.1101C18.8398 28.5148 23.7125 33.175 29.934 31.8619C30.2921 31.6255 32.066 31.4155 32.2665 31.203C32.9278 30.4987 32.023 29.4769 31.1516 29.9711C30.2802 30.4629 27.6302 31.9789 27.3174 28.8801C27.0047 25.7812 30.4187 26.6622 31.0131 27.4715C31.6052 28.2808 32.5816 28.9493 33.3146 28.5983C34.0475 28.2474 33.6631 26.3088 31.9896 26.3805C30.316 26.4497 29.5496 24.5135 29.829 23.6732C30.1083 22.8328 30.6646 21.4505 32.5124 22.0856C34.3602 22.7182 32.9302 24.2676 35.8237 25.2894C38.7172 26.3112 41.2956 22.7898 41.8542 21.8755C42.3365 20.9683 42.6636 19.987 42.8044 18.97C43.2771 15.5346 42.9477 12.4333 42.7256 9.12682L42.7232 9.12443ZM26.4365 9.14592C26.224 9.2438 25.8898 8.91195 25.6869 8.40344C25.4839 7.89493 25.4911 7.40551 25.7036 7.30763C25.916 7.20975 26.2503 7.54159 26.4532 8.05011C26.6561 8.55862 26.649 9.04803 26.4365 9.14592ZM33.1594 8.38673C32.9755 8.9024 32.6532 9.24857 32.4384 9.16024C32.2235 9.07191 32.1973 8.58249 32.3811 8.06443C32.5649 7.54876 32.8872 7.20258 33.1021 7.29092C33.3169 7.37925 33.3432 7.86866 33.1594 8.38673Z" fill="#167047"></path><path d="M54.9636 30.5859V12.3839H67.0154V15.5568H58.812V19.894H66.2155V23.0669H58.812V30.5859H54.9636ZM68.7122 30.5859V16.9344H72.3828V19.3163H72.525C72.7739 18.469 73.1916 17.8291 73.7782 17.3965C74.3648 16.9581 75.0403 16.7388 75.8046 16.7388C75.9942 16.7388 76.1986 16.7507 76.4179 16.7744C76.6371 16.7981 76.8297 16.8307 76.9956 16.8722V20.2317C76.8178 20.1784 76.5719 20.131 76.2579 20.0895C75.9438 20.048 75.6565 20.0273 75.3958 20.0273C74.8388 20.0273 74.3411 20.1488 73.9026 20.3917C73.4701 20.6287 73.1264 20.9605 72.8717 21.3871C72.6228 21.8137 72.4984 22.3055 72.4984 22.8625V30.5859H68.7122ZM83.885 30.8526C82.5045 30.8526 81.3106 30.5593 80.3033 29.9727C79.3019 29.3802 78.5287 28.5566 77.9836 27.5019C77.4385 26.4413 77.1659 25.2118 77.1659 23.8135C77.1659 22.4033 77.4385 21.1709 77.9836 20.1162C78.5287 19.0556 79.3019 18.232 80.3033 17.6454C81.3106 17.0529 82.5045 16.7566 83.885 16.7566C85.2656 16.7566 86.4566 17.0529 87.4579 17.6454C88.4652 18.232 89.2414 19.0556 89.7865 20.1162C90.3316 21.1709 90.6042 22.4033 90.6042 23.8135C90.6042 25.2118 90.3316 26.4413 89.7865 27.5019C89.2414 28.5566 88.4652 29.3802 87.4579 29.9727C86.4566 30.5593 85.2656 30.8526 83.885 30.8526ZM83.9028 27.9196C84.5309 27.9196 85.0553 27.7419 85.4759 27.3864C85.8966 27.0249 86.2136 26.5331 86.4269 25.911C86.6462 25.2888 86.7558 24.5808 86.7558 23.7868C86.7558 22.9928 86.6462 22.2848 86.4269 21.6627C86.2136 21.0405 85.8966 20.5487 85.4759 20.1873C85.0553 19.8259 84.5309 19.6451 83.9028 19.6451C83.2688 19.6451 82.7356 19.8259 82.303 20.1873C81.8764 20.5487 81.5535 21.0405 81.3343 21.6627C81.1209 22.2848 81.0143 22.9928 81.0143 23.7868C81.0143 24.5808 81.1209 25.2888 81.3343 25.911C81.5535 26.5331 81.8764 27.0249 82.303 27.3864C82.7356 27.7419 83.2688 27.9196 83.9028 27.9196ZM98.6157 35.9897C97.3892 35.9897 96.3375 35.8208 95.4606 35.4831C94.5896 35.1513 93.8963 34.698 93.3808 34.1233C92.8653 33.5485 92.5306 32.9027 92.3765 32.1857L95.8783 31.7147C95.9849 31.9872 96.1538 32.242 96.3849 32.479C96.616 32.716 96.9211 32.9056 97.3003 33.0478C97.6855 33.196 98.1535 33.27 98.7046 33.27C99.5282 33.27 100.207 33.0686 100.74 32.6657C101.279 32.2687 101.549 31.6021 101.549 30.6659V28.1685H101.389C101.223 28.5477 100.974 28.9062 100.642 29.2439C100.31 29.5816 99.8837 29.8571 99.3623 30.0704C98.8409 30.2838 98.2187 30.3904 97.4959 30.3904C96.4708 30.3904 95.5376 30.1534 94.6962 29.6794C93.8608 29.1995 93.1942 28.4677 92.6965 27.4841C92.2047 26.4946 91.9588 25.2444 91.9588 23.7335C91.9588 22.187 92.2106 20.8953 92.7143 19.8584C93.2179 18.8215 93.8874 18.0453 94.7229 17.5299C95.5643 17.0144 96.4856 16.7566 97.487 16.7566C98.2513 16.7566 98.8912 16.887 99.4067 17.1477C99.9222 17.4025 100.337 17.7224 100.651 18.1076C100.971 18.4868 101.217 18.8601 101.389 19.2274H101.531V16.9344H105.29V30.7193C105.29 31.8806 105.006 32.8523 104.437 33.6344C103.868 34.4166 103.08 35.0031 102.073 35.3942C101.072 35.7912 99.9192 35.9897 98.6157 35.9897ZM98.6957 27.5463C99.306 27.5463 99.8215 27.3952 100.242 27.0931C100.669 26.7849 100.995 26.3465 101.22 25.7777C101.451 25.2029 101.566 24.5156 101.566 23.7157C101.566 22.9158 101.454 22.2226 101.229 21.636C101.004 21.0435 100.678 20.5843 100.251 20.2584C99.8244 19.9325 99.306 19.7696 98.6957 19.7696C98.0736 19.7696 97.5492 19.9384 97.1226 20.2762C96.696 20.608 96.373 21.0701 96.1538 21.6627C95.9346 22.2552 95.825 22.9395 95.825 23.7157C95.825 24.5038 95.9346 25.1852 96.1538 25.7599C96.379 26.3287 96.7019 26.7701 97.1226 27.0842C97.5492 27.3923 98.0736 27.5463 98.6957 27.5463ZM113.853 35.9897C112.626 35.9897 111.575 35.8208 110.698 35.4831C109.827 35.1513 109.134 34.698 108.618 34.1233C108.103 33.5485 107.768 32.9027 107.614 32.1857L111.116 31.7147C111.222 31.9872 111.391 32.242 111.622 32.479C111.853 32.716 112.158 32.9056 112.538 33.0478C112.923 33.196 113.391 33.27 113.942 33.27C114.765 33.27 115.444 33.0686 115.977 32.6657C116.516 32.2687 116.786 31.6021 116.786 30.6659V28.1685H116.626C116.46 28.5477 116.211 28.9062 115.879 29.2439C115.548 29.5816 115.121 29.8571 114.6 30.0704C114.078 30.2838 113.456 30.3904 112.733 30.3904C111.708 30.3904 110.775 30.1534 109.933 29.6794C109.098 29.1995 108.431 28.4677 107.934 27.4841C107.442 26.4946 107.196 25.2444 107.196 23.7335C107.196 22.187 107.448 20.8953 107.952 19.8584C108.455 18.8215 109.125 18.0453 109.96 17.5299C110.802 17.0144 111.723 16.7566 112.724 16.7566C113.489 16.7566 114.129 16.887 114.644 17.1477C115.159 17.4025 115.574 17.7224 115.888 18.1076C116.208 18.4868 116.454 18.8601 116.626 19.2274H116.768V16.9344H120.528V30.7193C120.528 31.8806 120.243 32.8523 119.674 33.6344C119.106 34.4166 118.318 35.0031 117.31 35.3942C116.309 35.7912 115.157 35.9897 113.853 35.9897ZM113.933 27.5463C114.543 27.5463 115.059 27.3952 115.479 27.0931C115.906 26.7849 116.232 26.3465 116.457 25.7777C116.688 25.2029 116.804 24.5156 116.804 23.7157C116.804 22.9158 116.691 22.2226 116.466 21.636C116.241 21.0435 115.915 20.5843 115.488 20.2584C115.062 19.9325 114.543 19.7696 113.933 19.7696C113.311 19.7696 112.786 19.9384 112.36 20.2762C111.933 20.608 111.61 21.0701 111.391 21.6627C111.172 22.2552 111.062 22.9395 111.062 23.7157C111.062 24.5038 111.172 25.1852 111.391 25.7599C111.616 26.3287 111.939 26.7701 112.36 27.0842C112.786 27.3923 113.311 27.5463 113.933 27.5463ZM125.277 35.7053C124.797 35.7053 124.347 35.6668 123.926 35.5897C123.512 35.5186 123.168 35.4268 122.896 35.3142L123.749 32.4879C124.193 32.6242 124.593 32.6983 124.949 32.7101C125.31 32.722 125.621 32.639 125.882 32.4612C126.148 32.2835 126.365 31.9813 126.531 31.5547L126.753 30.977L121.856 16.9344H125.837L128.664 26.9597H128.806L131.659 16.9344H135.667L130.361 32.0613C130.106 32.796 129.76 33.4359 129.321 33.9811C128.889 34.5321 128.341 34.9557 127.677 35.252C127.013 35.5542 126.214 35.7053 125.277 35.7053ZM135.526 15.5568V12.3839H150.476V15.5568H144.903V30.5859H141.099V15.5568H135.526ZM154.301 30.8437C153.43 30.8437 152.654 30.6926 151.972 30.3904C151.291 30.0823 150.752 29.629 150.355 29.0306C149.964 28.4262 149.768 27.6737 149.768 26.7731C149.768 26.0147 149.908 25.3777 150.186 24.8622C150.465 24.3467 150.844 23.932 151.324 23.618C151.804 23.3039 152.349 23.0669 152.959 22.9069C153.575 22.747 154.221 22.6344 154.897 22.5692C155.691 22.4862 156.33 22.4092 156.816 22.3381C157.302 22.2611 157.655 22.1485 157.874 22.0004C158.093 21.8523 158.203 21.633 158.203 21.3427V21.2894C158.203 20.7265 158.025 20.291 157.67 19.9829C157.32 19.6748 156.822 19.5207 156.176 19.5207C155.495 19.5207 154.953 19.6718 154.55 19.974C154.147 20.2702 153.88 20.6435 153.75 21.0938L150.248 20.8094C150.426 19.9799 150.776 19.263 151.297 18.6586C151.818 18.0483 152.491 17.5802 153.315 17.2543C154.144 16.9225 155.104 16.7566 156.194 16.7566C156.953 16.7566 157.678 16.8455 158.372 17.0233C159.071 17.201 159.69 17.4765 160.229 17.8498C160.774 18.2231 161.204 18.703 161.518 19.2896C161.832 19.8703 161.989 20.5665 161.989 21.3782V30.5859H158.398V28.6928H158.292C158.072 29.1195 157.779 29.4957 157.412 29.8216C157.044 30.1416 156.603 30.3934 156.087 30.577C155.572 30.7548 154.977 30.8437 154.301 30.8437ZM155.385 28.2307C155.942 28.2307 156.434 28.1211 156.861 27.9018C157.287 27.6767 157.622 27.3745 157.865 26.9953C158.108 26.6161 158.229 26.1865 158.229 25.7066V24.2579C158.111 24.3349 157.948 24.406 157.741 24.4712C157.539 24.5304 157.311 24.5867 157.056 24.64C156.801 24.6874 156.547 24.7319 156.292 24.7734C156.037 24.8089 155.806 24.8415 155.599 24.8711C155.154 24.9363 154.766 25.04 154.434 25.1822C154.103 25.3244 153.845 25.517 153.661 25.7599C153.477 25.9969 153.386 26.2932 153.386 26.6487C153.386 27.1642 153.572 27.5582 153.946 27.8307C154.325 28.0974 154.805 28.2307 155.385 28.2307ZM168.112 12.3839V30.5859H164.326V12.3839H168.112ZM173.975 26.6576L173.984 22.1159H174.535L178.907 16.9344H183.254L177.379 23.7957H176.481L173.975 26.6576ZM170.544 30.5859V12.3839H174.33V30.5859H170.544ZM179.076 30.5859L175.059 24.64L177.583 21.9648L183.511 30.5859H179.076Z" fill="black"></path></svg>